<svg width="300" height="300" viewBox="0 0 300 300" fill="none" xmlns="http://www.w3.org/2000/svg">
<path d="M16.5 3.75H283.5C290.542 3.75 296.25 9.45837 296.25 16.5V283.5C296.25 290.542 290.542 296.25 283.5 296.25H16.5C9.45837 296.25 3.75 290.542 3.75 283.5V16.5C3.75 9.45837 9.45837 3.75 16.5 3.75Z" stroke="#4444FF" stroke-width="5"/>
<path d="M24.75 30C21.8505 30 19.5 27.6495 19.5 24.75C19.5 21.8505 21.8505 19.5 24.75 19.5C27.6495 19.5 30 21.8505 30 24.75C30 27.6495 27.6495 30 24.75 30Z" fill="#4444FF"/>
<path d="M50.25 30C47.3505 30 45 27.6495 45 24.75C45 21.8505 47.3505 19.5 50.25 19.5C53.1495 19.5 55.5 21.8505 55.5 24.75C55.5 27.6495 53.1495 30 50.25 30Z" fill="#4444FF"/>
<path d="M75.75 30C72.8505 30 70.5 27.6495 70.5 24.75C70.5 21.8505 72.8505 19.5 75.75 19.5C78.6495 19.5 81 21.8505 81 24.75C81 27.6495 78.6495 30 75.75 30Z" fill="#4444FF"/>
<path d="M296.25 45.75H3.75V283.5C3.75 290.541 9.45836 296.25 16.5 296.25H283.5C290.541 296.25 296.25 290.541 296.25 283.5V45.75Z" stroke="#4444FF" stroke-width="5"/>
<path d="M117.504 180.48V148.312H107.59L86.0742 182.274L86.4609 188.391H107.73V199.5H117.504V188.391H123.445V180.48H117.504ZM95.6718 180.48L106.781 163.149L107.73 161.461V180.48H95.6718ZM165.528 180.024V167.788C165.528 164.484 165.141 161.578 164.367 159.07C163.593 156.538 162.492 154.417 161.062 152.707C159.609 151.02 157.851 149.742 155.788 148.875C153.726 148.008 151.407 147.574 148.828 147.574C146.273 147.574 143.965 148.008 141.902 148.875C139.863 149.742 138.129 151.02 136.699 152.707C135.246 154.417 134.133 156.538 133.359 159.07C132.586 161.578 132.199 164.484 132.199 167.788V180.024C132.199 183.328 132.586 186.246 133.359 188.778C134.156 191.284 135.281 193.383 136.734 195.07C138.164 196.782 139.91 198.07 141.973 198.937C144.035 199.804 146.344 200.238 148.898 200.238C151.476 200.238 153.796 199.804 155.859 198.937C157.921 198.07 159.667 196.782 161.097 195.07C162.528 193.383 163.617 191.284 164.367 188.778C165.141 186.246 165.528 183.328 165.528 180.024ZM142.043 175.804C142.043 175.078 142.043 174.528 142.043 174.153C142.043 173.778 142.043 173.028 142.043 171.903V166.242C142.043 164.343 142.184 162.703 142.465 161.32C142.77 159.937 143.227 158.812 143.836 157.945C144.398 157.125 145.09 156.516 145.91 156.117C146.754 155.695 147.727 155.484 148.828 155.484C149.813 155.484 150.691 155.649 151.465 155.976C152.262 156.282 152.929 156.762 153.468 157.417C154.171 158.238 154.699 159.34 155.05 160.722C155.425 162.082 155.637 163.722 155.683 165.645L142.043 175.804ZM155.683 181.5C155.683 183.399 155.532 185.05 155.226 186.457C154.945 187.84 154.512 188.976 153.925 189.867C153.363 190.711 152.659 191.343 151.816 191.766C150.972 192.163 150 192.363 148.898 192.363C147.703 192.363 146.672 192.129 145.805 191.659C144.938 191.191 144.223 190.476 143.66 189.516C143.168 188.718 142.781 187.722 142.5 186.528C142.242 185.332 142.09 183.961 142.043 182.413L155.683 172.288C155.683 172.968 155.683 173.496 155.683 173.871C155.683 174.222 155.683 174.784 155.683 175.558V181.5ZM203.988 180.48V148.312H194.074L172.558 182.274L172.945 188.391H194.216V199.5H203.988V188.391H209.93V180.48H203.988ZM182.157 180.48L193.266 163.149L194.216 161.461V180.48H182.157Z" fill="#4444FF"/>
</svg>
